<mxfile host="app.diagrams.net" modified="2024-01-25T08:49:34.746Z" agent="Mozilla/5.0 (X11; Linux x86_64) AppleWebKit/537.36 (KHTML, like Gecko) Chrome/120.0.0.0 Safari/537.36" version="23.0.1" etag="utCNJst--_KpFe01_Fad" type="github">
  <diagram name="Page-1" id="T13DgnZAEVsvGJX_qtG6">
    <mxGraphModel>
      <root>
        <mxCell id="0" />
        <mxCell id="1" parent="0" />
      </root>
    </mxGraphModel>
  </diagram>
</mxfile>
